#!OML:ASF H:\Dans Jumps\Project 1\Capture day 1\Session 1\subject.ASF
:FULLY-SPECIFIED
:DEGREES
142
root 0.308096 17.572 -13.9747 6.73664 0.208318 -1.34792
lowerback -2.40524 -0.355719 0.0697965
upperback 2.58959 -0.535341 1.5696
thorax 4.03026 -0.289368 1.54761
lowerneck -14.3219 0.158895 -1.99432
upperneck 29.8848 0.375333 1.30165
head 12.2116 0.109124 0.891239
rclavicle 5.26779e-015 -2.18663e-015
rhumerus -16.8185 -12.2345 -85.9715
rradius 24.081
rwrist 32.2228
rhand -19.2897 -26.3501
rfingers 7.12502
rthumb 7.02552 -56.2135
lclavicle 5.26779e-015 -2.18663e-015
lhumerus -14.2722 -6.4573 92.4851
lradius 19.1933
lwrist 2.08893
lhand -25.6352 -4.47655
lfingers 7.12502
lthumb 0.898052 25.5013
rfemur -12.4533 -2.7873 19.412
rtibia 20.4072
rfoot -13.7759 -3.11998
rtoes 10.636
lfemur -10.9692 6.75935 -17.6874
ltibia 17.8797
lfoot -10.493 7.0608
ltoes -3.47566
143
root 0.309736 17.5717 -13.977 6.73561 0.215152 -1.35362
lowerback -2.37838 -0.355638 0.0714163
upperback 2.58505 -0.535174 1.57539
thorax 4.01036 -0.289256 1.5528
lowerneck -14.3208 0.16062 -1.99341
upperneck 29.8921 0.378028 1.30019
head 12.2143 0.110213 0.890989
rclavicle -1.49089e-015 -3.97569e-015
rhumerus -16.8367 -12.1349 -85.9952
rradius 24.1437
rwrist 32.1296
rhand -19.2651 -26.3696
rfingers 7.12502
rthumb 7.04928 -56.2322
lclavicle -1.49089e-015 -3.97569e-015
lhumerus -14.306 -6.42934 92.5173
lradius 19.1595
lwrist 2.01533
lhand -25.5961 -4.45929
lfingers 7.12502
lthumb 0.935887 25.5184
rfemur -12.4688 -2.78533 19.4142
rtibia 20.4233
rfoot -13.7696 -3.13189
rtoes 10.6093
lfemur -10.9949 6.7563 -17.6877
ltibia 17.9128
lfoot -10.5025 7.05963
ltoes -3.46063
144
root 0.311421 17.5713 -13.9794 6.73458 0.223089 -1.36032
lowerback -2.35115 -0.355993 0.073565
upperback 2.58203 -0.53566 1.58206
thorax 3.99186 -0.289477 1.55856
lowerneck -14.3153 0.163359 -1.99302
upperneck 29.8918 0.381619 1.30074
head 12.2129 0.111945 0.891622
rclavicle -4.96962e-015 -3.97569e-016
rhumerus -16.8571 -12.0261 -86.0171
rradius 24.2093
rwrist 32.0363
rhand -19.2361 -26.3888
rfingers 7.12502
rthumb 7.07727 -56.2504
lclavicle -4.96962e-015 -3.97569e-016
lhumerus -14.3396 -6.40089 92.5467
lradius 19.1215
lwrist 1.94421
lhand -25.5601 -4.43881
lfingers 7.12502
lthumb 0.970649 25.5387
rfemur -12.4839 -2.78526 19.4176
rtibia 20.4384
rfoot -13.7631 -3.1441
rtoes 10.5756
lfemur -11.0239 6.75262 -17.6869
ltibia 17.952
lfoot -10.5145 7.05789
ltoes -3.44217
145
root 0.313122 17.5709 -13.9819 6.73388 0.230944 -1.37031
lowerback -2.3235 -0.356821 0.0787024
upperback 2.58075 -0.536953 1.58964
thorax 3.97493 -0.290038 1.56354
lowerneck -14.3103 0.167559 -1.99253
upperneck 29.887 0.386789 1.30292
head 12.2098 0.114626 0.893043
rclavicle 5.76476e-015 4.17448e-015
rhumerus -16.8791 -11.9079 -86.0387
rradius 24.2776
rwrist 31.9472
rhand -19.2083 -26.4042
rfingers 7.12502
rthumb 7.10413 -56.2649
lclavicle 5.76476e-015 4.17448e-015
lhumerus -14.373 -6.37604 92.5723
lradius 19.0831
lwrist 1.88279
lhand -25.5298 -4.41805
lfingers 7.12502
lthumb 0.999851 25.5593
rfemur -12.4997 -2.78584 19.4245
rtibia 20.4532
rfoot -13.7573 -3.15445
rtoes 10.543
lfemur -11.0573 6.75015 -17.6825
ltibia 17.9974
lfoot -10.527 7.05582
ltoes -3.43659
146
root 0.314869 17.5704 -13.9845 6.73412 0.236758 -1.3818
lowerback -2.29468 -0.357151 0.0847306
upperback 2.58055 -0.537627 1.59752
thorax 3.95843 -0.290276 1.56838
lowerneck -14.3047 0.172008 -1.99242
upperneck 29.8765 0.391454 1.30815
head 12.2043 0.117464 0.895552
rclavicle 3.97569e-015 -1.59028e-015
rhumerus -16.9005 -11.7884 -86.0595
rradius 24.3429
rwrist 31.8721
rhand -19.1914 -26.4126
rfingers 7.12502
rthumb 7.12041 -56.2728
lclavicle 3.97569e-015 -1.59028e-015
lhumerus -14.4099 -6.36123 92.595
lradius 19.0475
lwrist 1.83736
lhand -25.5057 -4.39834
lfingers 7.12502
lthumb 1.02319 25.5789
rfemur -12.5186 -2.78792 19.4327
rtibia 20.4699
rfoot -13.7516 -3.16182
rtoes 10.5068
lfemur -11.0946 6.74873 -17.6769
ltibia 18.047
lfoot -10.5373 7.05571
ltoes -3.44352
147
root 0.316616 17.5699 -13.9874 6.73356 0.240681 -1.39428
lowerback -2.26399 -0.357839 0.090331
upperback 2.58266 -0.53878 1.60569
thorax 3.9433 -0.290782 1.57374
lowerneck -14.3039 0.176978 -1.98926
upperneck 29.8648 0.396404 1.31241
head 12.1993 0.120651 0.897213
rclavicle 9.19379e-015 -7.15625e-015
rhumerus -16.9207 -11.6607 -86.0811
rradius 24.4075
rwrist 31.7983
rhand -19.188 -26.4202
rfingers 7.12502
rthumb 7.12366 -56.2803
lclavicle 9.19379e-015 -7.15625e-015
lhumerus -14.4493 -6.35134 92.613
lradius 19.0174
lwrist 1.80401
lhand -25.4798 -4.36581
lfingers 7.12502
lthumb 1.0482 25.6114
rfemur -12.5399 -2.78955 19.4418
rtibia 20.4899
rfoot -13.7469 -3.16703
rtoes 10.4715
lfemur -11.134 6.74874 -17.6708
ltibia 18.1003
lfoot -10.5453 7.0589
ltoes -3.47279
148
root 0.318395 17.5693 -13.9904 6.73458 0.243171 -1.40421
lowerback -2.23313 -0.358462 0.0930302
upperback 2.58553 -0.539687 1.6126
thorax 3.92886 -0.291236 1.57945
lowerneck -14.3066 0.1817 -1.98426
upperneck 29.8527 0.400345 1.31729
head 12.1949 0.123679 0.898655
rclavicle 1.88845e-015 -5.56597e-015
rhumerus -16.9418 -11.5309 -86.1023
rradius 24.4718
rwrist 31.727
rhand -19.2059 -26.4189
rfingers 7.12502
rthumb 7.10639 -56.2796
lclavicle 1.88845e-015 -5.56597e-015
lhumerus -14.4946 -6.35214 92.6269
lradius 18.9942
lwrist 1.78716
lhand -25.4592 -4.35397
lfingers 7.12502
lthumb 1.06806 25.6231
rfemur -12.5668 -2.79575 19.4481
rtibia 20.5149
rfoot -13.7432 -3.16665
rtoes 10.4389
lfemur -11.1768 6.74948 -17.6684
ltibia 18.1563
lfoot -10.5539 7.06441
ltoes -3.49689
149
root 0.320153 17.5686 -13.9935 6.7353 0.246465 -1.41297
lowerback -2.19868 -0.359768 0.093923
upperback 2.58925 -0.541372 1.61857
thorax 3.9133 -0.292113 1.58517
lowerneck -14.3133 0.185631 -1.978
upperneck 29.8403 0.40267 1.32278
head 12.1912 0.126207 0.899889
rclavicle 4.22417e-015 5.96354e-016
rhumerus -16.9631 -11.4049 -86.1236
rradius 24.5351
rwrist 31.6541
rhand -19.2362 -26.4081
rfingers 7.12502
rthumb 7.07712 -56.2698
lclavicle 4.22417e-015 5.96354e-016
lhumerus -14.5441 -6.36045 92.6355
lradius 18.9746
lwrist 1.77667
lhand -25.4373 -4.35496
lfingers 7.12502
lthumb 1.08923 25.622
rfemur -12.5967 -2.801 19.453
rtibia 20.5448
rfoot -13.741 -3.16739
rtoes 10.4143
lfemur -11.2216 6.74659 -17.6673
ltibia 18.2156
lfoot -10.5619 7.07446
ltoes -3.52867
